<?xml version="1.0" encoding="iso-8859-1"?>
<!-- Generator: Adobe Illustrator 16.0.0, SVG Export Plug-In . SVG Version: 6.00 Build 0)  -->
<!DOCTYPE svg PUBLIC "-//W3C//DTD SVG 1.1//EN" "http://www.w3.org/Graphics/SVG/1.1/DTD/svg11.dtd">
<svg version="1.1" id="&#x5716;&#x5C64;_1" xmlns="http://www.w3.org/2000/svg" xmlns:xlink="http://www.w3.org/1999/xlink" x="0px"
	 y="0px" width="159.844px" height="213.789px" viewBox="0 0 159.844 213.789" style="enable-background:new 0 0 159.844 213.789;"
	 xml:space="preserve">
<g>
	<path style="fill-rule:evenodd;clip-rule:evenodd;" d="M7.887,5.791C21.622,3.772,34.055,1.946,47.303,0
		c-1.361,9.399,4.107,14.712,9.508,20.283c4.77,4.921,10.227,9.649,9.66,17.885c5.844-3.788,6.031-4.688,2.98-9.599
		c-3.617-5.825-7.152-11.732-6.645-18.97c0.158-2.25,0.848-4.462,1.629-8.372c5.871,3.291,11.023,5.737,15.652,8.939
		c2.82,1.951,4.914,2.526,8.072,0.918c6.303-3.209,12.961-5.194,20.682-3.48c-2.299,9.105-6.785,16.867-12.695,23.97
		c-1.133,1.363-1.428,3.426-2.109,5.167c0.404,0.103,0.809,0.206,1.211,0.309c6.561-5.794,12.721-12.153,19.809-17.208
		c5.857-4.175,12.508-7.766,19.34-9.937c17.334-5.508,29.111,5.777,24.404,23.438c-2.682,10.059-7.094,19.65-10.566,29.509
		c-0.971,2.754-1.949,5.707-1.951,8.569c-0.047,45.808,0.053,91.615,0.158,137.422c0.006,3.061-0.516,4.955-4.363,4.945
		c-45.641-0.107-91.283-0.075-136.926-0.094c-0.305,0-0.609-0.201-1.377-0.471c-0.063-1.417-0.197-3.013-0.197-4.608
		C3.567,167.136,3.856,125.654,3.405,84.18C3.26,70.773,1.12,57.392,0.047,43.987c-0.189-2.369,0.221-4.832,0.674-7.19
		c0.275-1.432,1.15-2.752,1.781-4.111C6.415,24.233,12.885,16.389,7.887,5.791z M114.551,139.213c0-21.483-0.107-42.967,0.09-64.449
		c0.041-4.329-1.123-5.711-5.592-5.686c-31.641,0.182-63.283,0.181-94.926,0.003c-4.561-0.025-6.023,1.272-6.008,5.901
		c0.148,42.632,0.15,85.266,0,127.899c-0.018,4.764,1.408,6.344,6.24,6.317c31.475-0.174,62.951-0.184,94.426,0.012
		c4.75,0.029,5.895-1.582,5.855-6.048C114.446,181.847,114.551,160.529,114.551,139.213z M139.536,198.778
		c0.422-0.167,0.844-0.335,1.266-0.502c0.105-1.44,0.305-2.88,0.305-4.32c0.008-36.648,0.018-73.296-0.039-109.944
		c-0.006-4.624,1.369-11.132-1.045-13.367c-2.707-2.506-8.99-1.319-13.723-1.427c-6.705-0.153-6.727-0.031-6.729,6.466
		c-0.006,39.646-0.008,79.293,0.006,118.94c0.002,1.7,0.18,3.4,0.275,5.1c0.467,0.163,0.936,0.325,1.404,0.487
		c3.045-4.019,6.092-8.037,9.6-12.664C133.993,191.604,136.764,195.191,139.536,198.778z M83.747,63.096
		c1.545,0.761,1.838,1.031,2.131,1.032c17.807,0.046,35.617,0.134,53.422-0.023c1.395-0.013,3.568-1.455,4.035-2.727
		c3.998-10.868,8.369-21.673,11.26-32.852c2.508-9.699-6.098-17.482-15.805-14.862c-5.381,1.453-10.4,4.239-15.58,6.432
		c-4.15,1.757-4.707,4.297-2.439,8.236c2.15,3.733,3.576,7.881,5.322,11.846c-0.633,0.361-1.264,0.722-1.896,1.083
		c-7.021-1.586-5.236-10.465-10.621-14.086c-1.869,1.563-3.766,3.36-5.873,4.86c-3.361,2.394-4.428,4.98-2.064,8.827
		c1.906,3.101,3.467,6.468,4.729,9.885c0.521,1.412-0.141,3.261-0.264,4.911c-1.352-0.889-3.193-1.478-3.957-2.727
		c-1.725-2.817-2.961-5.94-4.313-8.977c-1.145-2.577-2.756-2.996-4.389-0.701C92.864,49.684,88.459,56.24,83.747,63.096z
		 M36.004,64.228c8.488,0,16.977-0.047,25.463,0.025c3.029,0.026,4.207-1.016,3.637-4.21c-1.109-6.21-2.188-12.446-2.807-18.718
		c-0.453-4.599-2.428-5.896-6.836-5.092c-6.695,1.222-13.469,2.021-20.207,3.016c-8.707,1.285-17.416,2.562-26.113,3.896
		c-2.408,0.37-4.615,0.955-3.988,4.34c0.818,4.409,1.545,8.844,2.066,13.297c0.326,2.79,1.715,3.524,4.322,3.487
		C19.694,64.152,27.85,64.226,36.004,64.228z M86.786,34.547c6.172-7.073,12.238-13.329,14.713-21.829
		c-0.305-0.416-0.607-0.831-0.91-1.247c-5.908,2.381-11.816,4.763-17.24,6.95c-4.926-3.376-9.705-6.653-15.4-10.556
		c-0.16,2.506-0.336,3.303-0.242,4.068c0.83,6.87,4.096,12.593,8.578,17.678c2.086,2.368,2.555,4.238-0.145,6.681
		c-6.807,6.158-9.926,13.604-6.461,22.71c0.715,1.878,1.807,4.372,3.365,5.003c2.809,1.139,5.375-0.184,6.928-3.179
		c1.604-3.093,3.348-6.147,5.352-8.993C89.282,46.215,94.481,40.871,86.786,34.547z M59.745,30.976
		c-5.189-5.726-9.285-10.449-13.662-14.894c-0.807-0.819-2.793-0.847-4.166-0.674c-6.428,0.809-12.846,1.722-19.234,2.792
		c-2.908,0.487-7.1,0.5-8.35,2.335c-3.525,5.182-5.83,11.195-8.615,16.881c0.375,0.391,0.748,0.781,1.123,1.172
		C23.889,36.135,40.938,33.682,59.745,30.976z M42.778,10.186c0.199-0.592,0.396-1.184,0.596-1.775
		c-1.271-0.738-2.623-2.22-3.799-2.092C32.004,7.146,24.459,8.237,16.948,9.5c-0.982,0.165-1.717,1.809-2.566,2.768
		c1.008,0.592,2.098,1.8,3.01,1.679C25.872,12.824,34.321,11.472,42.778,10.186z M130.899,195.617
		c-3.354,4.705-5.959,8.356-9.252,12.973c6.563,0,11.809,0,18.535,0C136.87,203.961,134.27,200.327,130.899,195.617z"/>
	<path style="fill-rule:evenodd;clip-rule:evenodd;" d="M28.165,115.178c-0.02-6.003,1.318-11.969-2.852-17.662
		c-3.225-4.399,0.068-11.355,4.994-13.316c5.361-2.133,11.373,0.339,13.266,5.457c2.143,5.792-0.41,10.98-6.164,13.355
		c-1.49,0.615-3.488,2.397-3.537,3.707c-0.275,7.316-0.502,14.694,0.152,21.971c1.287,14.29,12.941,24.716,27.113,24.929
		c14.529,0.217,27.119-10.315,28.627-24.674c0.779-7.426,0.508-14.98,0.346-22.469c-0.031-1.413-1.512-3.189-2.811-4.107
		c-4.348-3.074-6.16-6.839-4.807-11.462c1.285-4.395,3.996-7.252,8.879-7.373c4.824-0.12,8.406,1.762,10.094,6.504
		c1.752,4.927-0.146,8.548-3.771,11.953c-1.582,1.485-2.908,3.991-3.049,6.118c-0.404,6.14-0.096,12.324-0.156,18.49
		c-0.162,16.426-13.148,30.207-28.947,31.565c-21.621,1.859-34.791-13.914-36.113-27.092
		C28.897,125.783,28.579,120.476,28.165,115.178z M86.483,91.608c-0.08,0.776-0.162,1.551-0.242,2.327
		c1.74,1.457,3.275,3.612,5.273,4.201c2.797,0.825,5.32-0.604,5.695-3.907c0.375-3.305-1.34-5.859-4.594-5.759
		C90.54,88.534,88.524,90.497,86.483,91.608z M34.413,98.323c3.152-0.091,5.094-1.682,5.021-4.871
		c-0.076-3.339-2.338-5.711-5.404-4.982c-1.902,0.452-4.137,3.185-4.576,5.245C28.797,96.799,31.135,98.475,34.413,98.323z"/>
</g>
</svg>
