<?xml version="1.0" encoding="iso-8859-1"?>
<!-- Generator: Adobe Illustrator 16.0.0, SVG Export Plug-In . SVG Version: 6.00 Build 0)  -->
<!DOCTYPE svg PUBLIC "-//W3C//DTD SVG 1.1//EN" "http://www.w3.org/Graphics/SVG/1.1/DTD/svg11.dtd">
<svg version="1.1" id="&#x5716;&#x5C64;_1" xmlns="http://www.w3.org/2000/svg" xmlns:xlink="http://www.w3.org/1999/xlink" x="0px"
	 y="0px" width="249.449px" height="249.449px" viewBox="0 0 249.449 249.449" style="enable-background:new 0 0 249.449 249.449;"
	 xml:space="preserve">
<g>
	<path style="fill-rule:evenodd;clip-rule:evenodd;" d="M-194.298-236.138c13.734-2.018,26.168-3.845,39.416-5.791
		c-1.361,9.399,4.107,14.712,9.508,20.283c4.77,4.921,10.227,9.649,9.66,17.885c5.844-3.788,6.031-4.688,2.98-9.599
		c-3.617-5.825-7.152-11.732-6.645-18.97c0.158-2.25,0.848-4.462,1.629-8.372c5.871,3.291,11.023,5.737,15.652,8.939
		c2.82,1.951,4.914,2.526,8.072,0.918c6.303-3.209,12.961-5.194,20.682-3.48c-2.299,9.105-6.785,16.867-12.695,23.97
		c-1.133,1.363-1.428,3.426-2.109,5.167c0.404,0.103,0.809,0.206,1.211,0.309c6.561-5.794,12.721-12.153,19.809-17.208
		c5.857-4.175,12.508-7.766,19.34-9.937c17.334-5.508,29.111,5.777,24.404,23.438c-2.682,10.059-7.094,19.65-10.566,29.509
		c-0.971,2.754-1.949,5.707-1.951,8.569c-0.047,45.808,0.053,91.615,0.158,137.422c0.006,3.061-0.516,4.955-4.363,4.945
		c-45.641-0.107-91.283-0.075-136.926-0.094c-0.305,0-0.609-0.201-1.377-0.471c-0.063-1.417-0.197-3.013-0.197-4.608
		c-0.012-41.479,0.277-82.961-0.174-124.436c-0.145-13.407-2.285-26.788-3.357-40.193c-0.189-2.369,0.221-4.832,0.674-7.19
		c0.275-1.432,1.15-2.752,1.781-4.111C-195.771-217.695-189.3-225.539-194.298-236.138z M-87.634-102.715
		c0-21.483-0.107-42.967,0.09-64.449c0.041-4.329-1.123-5.711-5.592-5.686c-31.641,0.182-63.283,0.181-94.926,0.003
		c-4.561-0.025-6.023,1.272-6.008,5.901c0.148,42.632,0.15,85.266,0,127.899c-0.018,4.764,1.408,6.344,6.24,6.317
		c31.475-0.174,62.951-0.184,94.426,0.012c4.75,0.029,5.895-1.582,5.855-6.048C-87.739-60.081-87.634-81.399-87.634-102.715z
		 M-62.649-43.15c0.422-0.167,0.844-0.335,1.266-0.502c0.105-1.44,0.305-2.88,0.305-4.32c0.008-36.648,0.018-73.296-0.039-109.944
		c-0.006-4.624,1.369-11.132-1.045-13.367c-2.707-2.506-8.99-1.319-13.723-1.427c-6.705-0.153-6.727-0.031-6.729,6.466
		c-0.006,39.646-0.008,79.293,0.006,118.94c0.002,1.7,0.18,3.4,0.275,5.1c0.467,0.163,0.936,0.325,1.404,0.487
		c3.045-4.019,6.092-8.037,9.6-12.664C-68.192-50.324-65.421-46.737-62.649-43.15z M-118.438-178.833
		c1.545,0.761,1.838,1.031,2.131,1.032c17.807,0.046,35.617,0.134,53.422-0.023c1.395-0.013,3.568-1.455,4.035-2.727
		c3.998-10.868,8.369-21.673,11.26-32.852c2.508-9.699-6.098-17.482-15.805-14.862c-5.381,1.453-10.4,4.239-15.58,6.432
		c-4.15,1.757-4.707,4.297-2.439,8.236c2.15,3.733,3.576,7.881,5.322,11.846c-0.633,0.361-1.264,0.722-1.896,1.083
		c-7.021-1.586-5.236-10.465-10.621-14.086c-1.869,1.563-3.766,3.36-5.873,4.86c-3.361,2.394-4.428,4.98-2.064,8.827
		c1.906,3.101,3.467,6.468,4.729,9.885c0.521,1.412-0.141,3.261-0.264,4.911c-1.352-0.889-3.193-1.478-3.957-2.727
		c-1.725-2.817-2.961-5.94-4.313-8.977c-1.145-2.577-2.756-2.996-4.389-0.701C-109.321-192.244-113.726-185.688-118.438-178.833z
		 M-166.181-177.7c8.488,0,16.977-0.047,25.463,0.025c3.029,0.026,4.207-1.016,3.637-4.21c-1.109-6.21-2.188-12.446-2.807-18.718
		c-0.453-4.599-2.428-5.896-6.836-5.092c-6.695,1.222-13.469,2.021-20.207,3.016c-8.707,1.285-17.416,2.562-26.113,3.896
		c-2.408,0.37-4.615,0.955-3.988,4.34c0.818,4.409,1.545,8.844,2.066,13.297c0.326,2.79,1.715,3.524,4.322,3.487
		C-182.491-177.776-174.335-177.702-166.181-177.7z M-115.399-207.381c6.172-7.073,12.238-13.329,14.713-21.829
		c-0.305-0.416-0.607-0.831-0.91-1.247c-5.908,2.381-11.816,4.763-17.24,6.95c-4.926-3.376-9.705-6.653-15.4-10.556
		c-0.16,2.506-0.336,3.303-0.242,4.068c0.83,6.87,4.096,12.593,8.578,17.678c2.086,2.368,2.555,4.238-0.145,6.681
		c-6.807,6.158-9.926,13.604-6.461,22.71c0.715,1.878,1.807,4.372,3.365,5.003c2.809,1.139,5.375-0.184,6.928-3.179
		c1.604-3.093,3.348-6.147,5.352-8.993C-112.903-195.713-107.704-201.057-115.399-207.381z M-142.44-210.952
		c-5.189-5.726-9.285-10.449-13.662-14.894c-0.807-0.819-2.793-0.847-4.166-0.674c-6.428,0.809-12.846,1.722-19.234,2.792
		c-2.908,0.487-7.1,0.5-8.35,2.335c-3.525,5.182-5.83,11.195-8.615,16.881c0.375,0.391,0.748,0.781,1.123,1.172
		C-178.296-205.793-161.247-208.246-142.44-210.952z M-159.407-231.743c0.199-0.592,0.396-1.184,0.596-1.775
		c-1.271-0.738-2.623-2.22-3.799-2.092c-7.57,0.828-15.115,1.919-22.627,3.182c-0.982,0.165-1.717,1.809-2.566,2.768
		c1.008,0.592,2.098,1.8,3.01,1.679C-176.313-229.104-167.864-230.457-159.407-231.743z M-71.286-46.312
		c-3.354,4.705-5.959,8.356-9.252,12.973c6.563,0,11.809,0,18.535,0C-65.315-37.967-67.915-41.602-71.286-46.312z"/>
	<path style="fill-rule:evenodd;clip-rule:evenodd;" d="M-174.021-126.75c-0.02-6.003,1.318-11.969-2.852-17.662
		c-3.225-4.399,0.068-11.355,4.994-13.316c5.361-2.133,11.373,0.339,13.266,5.457c2.143,5.792-0.41,10.98-6.164,13.355
		c-1.49,0.615-3.488,2.397-3.537,3.707c-0.275,7.316-0.502,14.694,0.152,21.971c1.287,14.29,12.941,24.716,27.113,24.929
		c14.529,0.217,27.119-10.315,28.627-24.674c0.779-7.426,0.508-14.98,0.346-22.469c-0.031-1.413-1.512-3.189-2.811-4.107
		c-4.348-3.074-6.16-6.839-4.807-11.462c1.285-4.395,3.996-7.252,8.879-7.373c4.824-0.12,8.406,1.762,10.094,6.504
		c1.752,4.927-0.146,8.548-3.771,11.953c-1.582,1.485-2.908,3.991-3.049,6.118c-0.404,6.14-0.096,12.324-0.156,18.49
		c-0.162,16.426-13.148,30.207-28.947,31.565c-21.621,1.859-34.791-13.914-36.113-27.092
		C-173.288-116.145-173.606-121.453-174.021-126.75z M-115.702-150.32c-0.08,0.776-0.162,1.551-0.242,2.327
		c1.74,1.457,3.275,3.612,5.273,4.201c2.797,0.825,5.32-0.604,5.695-3.907c0.375-3.305-1.34-5.859-4.594-5.759
		C-111.646-153.395-113.661-151.431-115.702-150.32z M-167.772-143.605c3.152-0.091,5.094-1.682,5.021-4.871
		c-0.076-3.339-2.338-5.711-5.404-4.982c-1.902,0.452-4.137,3.185-4.576,5.245C-173.388-145.129-171.05-143.454-167.772-143.605z"/>
</g>
<g>
	<path style="fill-rule:evenodd;clip-rule:evenodd;" d="M29.952-138.135c0.045-52.844,42.111-95.004,94.978-94.69
		c53.657,0.319,95.208,43.263,94.56,96.756c-0.62,51.108-42.891,93.03-94.869,93.012C71.784-43.076,29.908-85.133,29.952-138.135z
		 M36.247-138.124c-0.596,46.564,36.203,88.749,88.335,88.782c52.528,0.033,88.813-42.535,88.531-88.637
		c-0.302-49.379-39.21-88.472-88.638-88.421C75.369-226.35,36.236-187.196,36.247-138.124z"/>
	<path style="fill-rule:evenodd;clip-rule:evenodd;" d="M121.278-184.15c0.006-7.989-0.025-15.978,0.03-23.966
		c0.012-1.648,0.017-3.436,0.646-4.891c0.402-0.934,1.91-1.818,2.982-1.896c0.805-0.059,2.203,1.051,2.46,1.905
		c0.515,1.71,0.567,3.601,0.571,5.418c0.039,15.645,0.11,31.291-0.042,46.934c-0.034,3.507,0.667,5.669,4.206,7.334
		c7.193,3.385,10.914,10.978,9.642,18.056c-1.308,7.273-6.834,12.978-13.682,14.123c-8.071,1.35-15.548-2.158-18.948-9.694
		c-1.471-3.262-3.341-3.92-6.471-3.865c-8.319,0.146-16.643,0.077-24.964,0.025c-2.497-0.016-5.683,0.035-5.283-3.439
		c0.13-1.135,3.409-2.648,5.292-2.713c8.478-0.294,16.973-0.219,25.459-0.08c2.858,0.047,4.18-1.059,5.766-3.505
		c2.26-3.487,5.336-6.745,8.76-9.082c2.534-1.73,3.695-3.164,3.631-6.197C121.159-167.837,121.273-175.995,121.278-184.15z
		 M135.407-138.048c-0.024-6.168-4.527-10.84-10.485-10.878c-5.964-0.038-11.157,5.199-11.009,11.102
		c0.146,5.749,5.268,10.742,10.958,10.683C130.763-127.203,135.432-132.036,135.407-138.048z"/>
</g>
<path style="fill-rule:evenodd;clip-rule:evenodd;" d="M-86.761,213.762c-32.376,0-64.31,0-96.997,0c0-1.883,0-3.643,0-5.402
	c0-16.998-0.093-33.998,0.073-50.996c0.035-3.623-1.075-5.293-4.688-6.15c-6.286-1.492-12.688-2.97-18.593-5.501
	c-17.127-7.34-26.262-22.37-23.812-38.093c2.554-16.386,16.456-29.6,34.026-31.835c3.857-0.491,5.628-1.956,7.167-5.509
	c8.78-20.278,24.726-31.21,46.35-33.968c22.518-2.872,41.36,4.231,55.733,21.994c2.885,3.565,5.097,7.839,6.854,12.102
	c1.385,3.36,3.042,4.871,6.768,5.334c20.139,2.508,35.347,18.72,34.463,37.51c-0.687,14.593-8.031,25.684-21.505,31.771
	c-6.617,2.988-13.744,5.034-20.825,6.738c-3.741,0.9-4.857,2.357-4.83,5.984c0.13,17.498,0.061,34.998,0.048,52.496
	C-86.529,211.217-86.654,212.197-86.761,213.762z M-187.352,78.974c-6.649,1.534-12.705,2.165-18.139,4.343
	c-11.434,4.585-18.954,13.008-20.291,25.628c-1.222,11.531,3.445,20.668,12.66,27.715c8.544,6.533,18.782,8.374,28.813,10.465
	c4.413,0.92,5.166,2.663,5.123,6.603c-0.185,16.662,0.034,33.328-0.157,49.99c-0.048,4.182,0.914,5.877,5.519,5.84
	c25.828-0.203,51.658-0.176,77.486-0.02c4.138,0.023,5.508-1.262,5.468-5.41c-0.039-4.006-1.122-5.674-5.394-5.551
	c-8.991,0.264-17.998,0.211-26.992-0.002c-2.44-0.057-6.705,1.645-6.675-2.734c0.027-3.996,4.077-2.414,6.417-2.459
	c9.162-0.174,18.33-0.166,27.493-0.021c3.516,0.055,5.111-0.957,5.133-4.805c0.022-3.973-1.433-5.328-5.297-5.158
	c-5.155,0.229-10.334,0.18-15.493-0.014c-1.999-0.076-5.335,1.17-5.075-2.594c0.061-0.877,3.118-2.105,4.852-2.205
	c5.149-0.295,10.331-0.244,15.49-0.061c3.526,0.125,5.599-0.449,5.542-4.793c-0.054-4.109-1.373-5.613-5.525-5.525
	c-9.994,0.211-19.996,0.047-29.994,0.082c-3.305,0.01-4.689-1.105-2.99-4.658c10.91,0,21.724-0.131,32.533,0.066
	c4.109,0.076,6.019-0.887,5.993-5.525c-0.027-4.783-2.574-4.955-6.08-4.879c-5.496,0.119-11.004,0.174-16.491-0.088
	c-1.233-0.059-2.399-1.535-3.596-2.357c1.196-0.811,2.316-2.136,3.604-2.325c2.613-0.383,5.324-0.302,7.98-0.149
	c13.653,0.785,26.792-1.229,39.588-6.221c15.478-6.039,23.918-20.534,20.777-36.571c-2.675-13.655-19.674-26.604-32.958-24.82
	c-0.09,1.728,0.151,3.617-0.336,5.294c-1.883,6.488-3.892,12.947-6.15,19.311c-0.313,0.882-2.29,1.173-3.497,1.738
	c-0.238-1.324-0.771-2.681-0.623-3.96c0.123-1.07,1.088-2.025,1.6-3.071c4.613-9.409,5.879-19.011,1.509-28.88
	c-10.266-23.185-37.031-35.772-62.966-29.332C-168.709,46.882-182.348,58.985-187.352,78.974z"/>
<g>
	<path style="fill-rule:evenodd;clip-rule:evenodd;" d="M118.958,65.285c-6.993-9.288-7.337-14.97-1.769-20.024
		c4.042-3.669,11.012-3.727,15.082-0.123c5.623,4.977,5.344,10.907-1.127,19.51c49.424,8.326,75.488,37.735,79.912,87.849
		c-57.707,0-114.509,0-171.687,0c0.205-22.537,6.792-42.478,22.099-59.218C76.74,76.576,95.969,67.778,118.958,65.285z
		 M158.661,79.183c-0.481-1.321-0.491-1.543-0.599-1.61c-0.549-0.342-1.1-0.699-1.691-0.952c-22.285-9.482-44.653-9.096-66.22,1.42
		c-26.474,12.909-41.464,34.641-45.362,63.913c-0.498,3.747-0.234,6.142,4.883,6.124c50.166-0.18,100.332-0.142,150.498-0.041
		c3.693,0.008,4.937-1.062,4.887-4.819c-0.058-4.235-1.793-5.322-5.783-5.297c-23.166,0.147-46.333,0.074-69.5,0.067
		c-1.498-0.001-3.113,0.248-4.455-0.23c-0.974-0.348-1.931-1.617-2.204-2.657c-0.124-0.472,1.325-1.768,2.239-2.008
		c1.41-0.37,2.975-0.181,4.474-0.181c22.499-0.006,44.999,0.01,67.499-0.027c1.854-0.004,3.705-0.354,5.853-0.574
		c-0.624-2.324-1.186-3.89-1.451-5.503c-0.886-5.381-3.788-7.105-9.335-6.912c-12.984,0.453-25.994,0.148-38.994,0.136
		c-1.33-0.001-2.75,0.165-3.963-0.242c-0.913-0.307-2.188-1.425-2.164-2.145c0.027-0.84,1.153-2.06,2.053-2.358
		c1.37-0.454,2.955-0.324,4.449-0.327c12.5-0.018,25,0.002,37.5-0.023c1.564-0.003,3.13-0.203,4.842-0.322
		c-3.227-10.136-6.277-12.513-15.456-12.512c-17.167,0-34.333,0.002-51.499-0.006c-1.332,0-2.75,0.192-3.967-0.2
		c-0.894-0.288-2.115-1.382-2.119-2.123c-0.004-0.851,1.017-2.165,1.872-2.456c1.36-0.463,2.953-0.305,4.448-0.307
		c16.166-0.014,32.332,0.001,48.499-0.021c1.713-0.002,3.425-0.193,5.444-0.314c-4.064-7.581-11.783-12.484-18.949-12.492
		c-4.666-0.004-9.341,0.123-13.994-0.136c-1.096-0.061-2.121-1.435-3.178-2.205c0.996-0.685,1.922-1.79,3.002-1.971
		C152.889,79.425,155.629,79.4,158.661,79.183z M131.521,54.163c0.135-3.759-3.057-7.117-6.75-7.103
		c-3.462,0.014-6.609,3.125-6.73,6.65c-0.127,3.752,3.07,7.1,6.771,7.088C128.33,60.787,131.394,57.757,131.521,54.163z"/>
	<path style="fill-rule:evenodd;clip-rule:evenodd;" d="M106.299,205.131c1.188-0.926,2.355-1.877,3.576-2.756
		c0.219-0.157,0.65-0.006,0.984-0.015c11.304-0.285,11.304-0.286,11.304-11.856c0-5.332-0.267-10.681,0.083-15.988
		c0.296-4.497-1.012-6.027-5.775-5.974c-22.322,0.253-44.653,0.38-66.969-0.066c-5.947-0.118-12.268-1.496-17.676-3.938
		c-8.064-3.642-11.308-11.394-12.502-19.825c-0.172-1.217,1.198-2.653,1.854-3.988c0.988,1.037,2.562,1.922,2.875,3.133
		c3.801,14.704,9.92,19.613,24.963,19.617c50.48,0.012,100.96,0.012,151.44,0c15.138-0.004,21.174-4.805,25.032-19.507
		c0.324-1.235,1.888-2.146,2.875-3.208c0.623,1.488,1.938,3.065,1.762,4.453c-1.879,14.883-12.35,23.34-29.049,23.415
		c-22.49,0.103-44.984,0.198-67.472-0.102c-5.225-0.069-6.558,1.54-6.294,6.503c0.406,7.643,0.221,15.324,0.055,22.984
		c-0.072,3.279,1.211,4.523,4.382,4.372c2.826-0.135,5.692-0.276,8.48,0.067c1.077,0.133,1.991,1.592,2.979,2.447
		c-0.95,0.689-1.892,1.967-2.851,1.979c-10.967,0.141-21.936,0.09-32.905,0.09C107.066,206.356,106.683,205.744,106.299,205.131z"/>
</g>
<image style="overflow:visible;" width="325" height="227" xlink:href="9BCAF093.jpg"  transform="matrix(1 0 0 1 -7894 -7770.1099)">
</image>
</svg>
