<?xml version="1.0" encoding="iso-8859-1"?>
<!-- Generator: Adobe Illustrator 16.0.0, SVG Export Plug-In . SVG Version: 6.00 Build 0)  -->
<!DOCTYPE svg PUBLIC "-//W3C//DTD SVG 1.1//EN" "http://www.w3.org/Graphics/SVG/1.1/DTD/svg11.dtd">
<svg version="1.1" id="&#x5716;&#x5C64;_1" xmlns="http://www.w3.org/2000/svg" xmlns:xlink="http://www.w3.org/1999/xlink" x="0px"
	 y="0px" width="189.544px" height="189.77px" viewBox="0 0 189.544 189.77" style="enable-background:new 0 0 189.544 189.77;"
	 xml:space="preserve">
<g>
	<path style="fill-rule:evenodd;clip-rule:evenodd;" d="M0,94.692C0.044,41.848,42.111-0.313,94.977,0.002
		c53.657,0.319,95.208,43.263,94.56,96.756c-0.62,51.108-42.891,93.03-94.869,93.012C41.832,189.751-0.044,147.694,0,94.692z
		 M6.294,94.704c-0.596,46.564,36.203,88.749,88.335,88.782c52.528,0.033,88.813-42.535,88.531-88.637
		c-0.302-49.379-39.21-88.472-88.638-88.421C45.417,6.477,6.284,45.631,6.294,94.704z"/>
	<path style="fill-rule:evenodd;clip-rule:evenodd;" d="M91.326,48.677c0.006-7.989-0.025-15.978,0.03-23.966
		c0.012-1.648,0.017-3.436,0.646-4.891c0.402-0.934,1.91-1.818,2.982-1.896c0.805-0.059,2.203,1.051,2.46,1.905
		c0.515,1.71,0.567,3.601,0.571,5.418c0.039,15.645,0.11,31.291-0.042,46.934c-0.034,3.507,0.667,5.669,4.206,7.334
		c7.193,3.385,10.914,10.978,9.642,18.056c-1.308,7.273-6.834,12.978-13.682,14.123c-8.071,1.35-15.548-2.158-18.948-9.694
		c-1.471-3.262-3.341-3.92-6.471-3.865c-8.319,0.146-16.643,0.077-24.964,0.025c-2.497-0.016-5.683,0.035-5.283-3.439
		c0.13-1.135,3.409-2.648,5.292-2.713c8.478-0.294,16.973-0.219,25.459-0.08c2.858,0.047,4.18-1.059,5.766-3.505
		c2.26-3.487,5.336-6.745,8.76-9.082c2.534-1.73,3.695-3.164,3.631-6.197C91.207,64.99,91.321,56.833,91.326,48.677z
		 M105.455,94.779c-0.024-6.168-4.527-10.84-10.485-10.878C89.005,83.863,83.812,89.1,83.96,95.002
		c0.146,5.749,5.268,10.742,10.958,10.683C100.81,105.625,105.479,100.792,105.455,94.779z"/>
</g>
</svg>
