<?xml version="1.0" encoding="iso-8859-1"?>
<!-- Generator: Adobe Illustrator 16.0.0, SVG Export Plug-In . SVG Version: 6.00 Build 0)  -->
<!DOCTYPE svg PUBLIC "-//W3C//DTD SVG 1.1//EN" "http://www.w3.org/Graphics/SVG/1.1/DTD/svg11.dtd">
<svg version="1.1" id="&#x5716;&#x5C64;_1" xmlns="http://www.w3.org/2000/svg" xmlns:xlink="http://www.w3.org/1999/xlink" x="0px"
	 y="0px" width="210.832px" height="164.506px" viewBox="0 0 210.832 164.506" style="enable-background:new 0 0 210.832 164.506;"
	 xml:space="preserve">
<g>
	<path style="fill-rule:evenodd;clip-rule:evenodd;" d="M99.649,22.813c-6.993-9.288-7.337-14.97-1.769-20.024
		c4.042-3.669,11.012-3.727,15.082-0.123c5.623,4.977,5.344,10.907-1.127,19.51c49.424,8.326,75.488,37.735,79.912,87.849
		c-57.707,0-114.509,0-171.687,0c0.205-22.537,6.792-42.478,22.099-59.218C57.432,34.104,76.66,25.307,99.649,22.813z
		 M139.353,36.711c-0.481-1.321-0.491-1.543-0.599-1.61c-0.549-0.342-1.1-0.699-1.691-0.952c-22.285-9.482-44.653-9.096-66.22,1.42
		C44.369,48.478,29.379,70.21,25.48,99.482c-0.498,3.747-0.234,6.142,4.883,6.124c50.166-0.18,100.332-0.142,150.498-0.041
		c3.693,0.008,4.937-1.062,4.887-4.819c-0.058-4.235-1.793-5.322-5.783-5.297c-23.166,0.147-46.333,0.074-69.5,0.067
		c-1.498-0.001-3.113,0.248-4.455-0.23c-0.974-0.348-1.931-1.617-2.204-2.657c-0.124-0.472,1.325-1.768,2.239-2.008
		c1.41-0.37,2.975-0.181,4.474-0.181c22.499-0.006,44.999,0.01,67.499-0.027c1.854-0.004,3.705-0.354,5.853-0.574
		c-0.624-2.324-1.186-3.89-1.451-5.503c-0.886-5.381-3.788-7.105-9.335-6.912c-12.984,0.453-25.994,0.148-38.994,0.136
		c-1.33-0.001-2.75,0.165-3.963-0.242c-0.913-0.307-2.188-1.425-2.164-2.145c0.027-0.84,1.153-2.06,2.053-2.358
		c1.37-0.454,2.955-0.324,4.449-0.327c12.5-0.018,25,0.002,37.5-0.023c1.564-0.003,3.13-0.203,4.842-0.322
		c-3.227-10.136-6.277-12.513-15.456-12.512c-17.167,0-34.333,0.002-51.499-0.006c-1.332,0-2.75,0.192-3.967-0.2
		c-0.894-0.288-2.115-1.382-2.119-2.123c-0.004-0.851,1.017-2.165,1.872-2.456c1.36-0.463,2.953-0.305,4.448-0.307
		c16.166-0.014,32.332,0.001,48.499-0.021c1.713-0.002,3.425-0.193,5.444-0.314c-4.064-7.581-11.783-12.484-18.949-12.492
		c-4.666-0.004-9.341,0.123-13.994-0.136c-1.096-0.061-2.121-1.435-3.178-2.205c0.996-0.685,1.922-1.79,3.002-1.971
		C133.58,36.953,136.32,36.929,139.353,36.711z M112.213,11.691c0.135-3.759-3.057-7.117-6.75-7.103
		c-3.462,0.014-6.609,3.125-6.73,6.65c-0.127,3.752,3.07,7.1,6.771,7.088C109.021,18.315,112.085,15.285,112.213,11.691z"/>
	<path style="fill-rule:evenodd;clip-rule:evenodd;" d="M86.99,162.659c1.188-0.926,2.355-1.877,3.576-2.756
		c0.219-0.157,0.65-0.006,0.984-0.015c11.304-0.285,11.304-0.286,11.304-11.856c0-5.332-0.267-10.681,0.083-15.988
		c0.296-4.497-1.012-6.027-5.775-5.974c-22.322,0.253-44.653,0.38-66.969-0.066c-5.947-0.118-12.268-1.496-17.676-3.938
		c-8.064-3.642-11.308-11.394-12.502-19.825c-0.172-1.217,1.198-2.653,1.854-3.988c0.988,1.037,2.562,1.922,2.875,3.133
		c3.801,14.704,9.92,19.613,24.963,19.617c50.48,0.012,100.96,0.012,151.44,0c15.138-0.004,21.174-4.805,25.032-19.507
		c0.324-1.235,1.888-2.146,2.875-3.208c0.623,1.488,1.938,3.065,1.762,4.453c-1.879,14.883-12.35,23.34-29.049,23.415
		c-22.49,0.103-44.984,0.198-67.472-0.102c-5.225-0.069-6.558,1.54-6.294,6.503c0.406,7.643,0.221,15.324,0.055,22.984
		c-0.072,3.279,1.211,4.523,4.382,4.372c2.826-0.135,5.692-0.276,8.48,0.067c1.077,0.133,1.991,1.592,2.979,2.447
		c-0.95,0.689-1.892,1.967-2.851,1.979c-10.967,0.141-21.936,0.09-32.905,0.09C87.758,163.885,87.374,163.272,86.99,162.659z"/>
</g>
</svg>
