<?xml version="1.0" encoding="iso-8859-1"?>
<!-- Generator: Adobe Illustrator 16.0.0, SVG Export Plug-In . SVG Version: 6.00 Build 0)  -->
<!DOCTYPE svg PUBLIC "-//W3C//DTD SVG 1.1//EN" "http://www.w3.org/Graphics/SVG/1.1/DTD/svg11.dtd">
<svg version="1.1" id="&#x5716;&#x5C64;_1" xmlns="http://www.w3.org/2000/svg" xmlns:xlink="http://www.w3.org/1999/xlink" x="0px"
	 y="0px" width="191.789px" height="178.074px" viewBox="0 0 191.789 178.074" style="enable-background:new 0 0 191.789 178.074;"
	 xml:space="preserve">
<g>
	<path style="fill-rule:evenodd;clip-rule:evenodd;" d="M144.409,178.074c-32.376,0-64.31,0-96.997,0c0-1.883,0-3.643,0-5.402
		c0-16.998-0.093-33.998,0.073-50.996c0.035-3.623-1.075-5.293-4.688-6.15c-6.286-1.492-12.688-2.97-18.593-5.501
		c-17.127-7.34-26.262-22.37-23.812-38.093c2.554-16.386,16.456-29.6,34.026-31.835c3.857-0.491,5.628-1.956,7.167-5.509
		c8.78-20.278,24.726-31.21,46.35-33.968c22.518-2.872,41.36,4.231,55.733,21.994c2.885,3.565,5.097,7.839,6.854,12.102
		c1.385,3.36,3.042,4.871,6.768,5.334c20.139,2.508,35.347,18.72,34.463,37.51c-0.687,14.593-8.031,25.684-21.505,31.771
		c-6.617,2.988-13.744,5.034-20.825,6.738c-3.741,0.9-4.857,2.357-4.83,5.984c0.13,17.498,0.061,34.998,0.048,52.496
		C144.641,175.529,144.516,176.51,144.409,178.074z M43.818,43.286c-6.649,1.534-12.705,2.165-18.139,4.343
		C14.245,52.214,6.726,60.637,5.388,73.258c-1.222,11.531,3.445,20.668,12.66,27.715c8.544,6.533,18.782,8.374,28.813,10.465
		c4.413,0.92,5.166,2.663,5.123,6.603c-0.185,16.662,0.034,33.328-0.157,49.99c-0.048,4.182,0.914,5.877,5.519,5.84
		c25.828-0.203,51.658-0.176,77.486-0.02c4.138,0.023,5.508-1.262,5.468-5.41c-0.039-4.006-1.122-5.674-5.394-5.551
		c-8.991,0.264-17.998,0.211-26.992-0.002c-2.44-0.057-6.705,1.645-6.675-2.734c0.027-3.996,4.077-2.414,6.417-2.459
		c9.162-0.174,18.33-0.166,27.493-0.021c3.516,0.055,5.111-0.957,5.133-4.805c0.022-3.973-1.433-5.328-5.297-5.158
		c-5.155,0.229-10.334,0.18-15.493-0.014c-1.999-0.076-5.335,1.17-5.075-2.594c0.061-0.877,3.118-2.105,4.852-2.205
		c5.149-0.295,10.331-0.244,15.49-0.061c3.526,0.125,5.599-0.449,5.542-4.793c-0.054-4.109-1.373-5.613-5.525-5.525
		c-9.994,0.211-19.996,0.047-29.994,0.082c-3.305,0.01-4.689-1.105-2.99-4.658c10.91,0,21.724-0.131,32.533,0.066
		c4.109,0.076,6.019-0.887,5.993-5.525c-0.027-4.783-2.574-4.955-6.08-4.879c-5.496,0.119-11.004,0.174-16.491-0.088
		c-1.233-0.059-2.399-1.535-3.596-2.357c1.196-0.811,2.316-2.136,3.604-2.325c2.613-0.383,5.324-0.302,7.98-0.149
		c13.653,0.785,26.792-1.229,39.588-6.221c15.478-6.039,23.918-20.534,20.777-36.571c-2.675-13.655-19.674-26.604-32.958-24.82
		c-0.09,1.728,0.151,3.617-0.336,5.294c-1.883,6.488-3.892,12.947-6.15,19.311c-0.313,0.882-2.29,1.173-3.497,1.738
		c-0.238-1.324-0.771-2.681-0.623-3.96c0.123-1.07,1.088-2.025,1.6-3.071c4.613-9.409,5.879-19.011,1.509-28.88
		C135.378,12.321,108.613-0.266,82.678,6.174C62.461,11.194,48.822,23.298,43.818,43.286z"/>
</g>
</svg>
